<svg width="800" height="450" viewBox="0 0 800 450" xmlns="http://www.w3.org/2000/svg" role="img">
  <title>UserProfile monolítico se dividindo em quatro peças focadas: hook de dados, formatação de data, validação de e-mail e componente de apresentação</title>
  <defs>
    <pattern id="grid-srp" width="32" height="32" patternUnits="userSpaceOnUse">
      <circle cx="1" cy="1" r="1" fill="#cbd5e1" opacity="0.5"/>
    </pattern>
    <marker id="arrow-srp" markerWidth="10" markerHeight="10" refX="6" refY="3" orient="auto">
      <path d="M0,0 L6,3 L0,6 Z" fill="#0f172a"/>
    </marker>
  </defs>
  <rect width="800" height="450" fill="#f8fafc"/>
  <rect width="800" height="450" fill="url(#grid-srp)"/>

  <!-- before: one bloated component -->
  <rect x="70" y="120" width="180" height="220" rx="12" fill="#e2e8f0" stroke="#94a3b8" stroke-width="2.5"/>
  <text x="160" y="145" text-anchor="middle" font-family="ui-monospace, SFMono-Regular, Menlo, Consolas, monospace" font-size="13" fill="#475569">UserProfile</text>
  <g stroke="#64748b" stroke-width="2" fill="none">
    <!-- fetch icon -->
    <path d="M120,175 a20,20 0 1,0 0.1,0" />
    <path d="M160,175 L145,190 M160,175 L175,190" stroke-width="1.6"/>
    <!-- calendar icon -->
    <rect x="105" y="215" width="30" height="24" rx="3"/>
    <path d="M105,223 L135,223" stroke-width="1.6"/>
    <!-- check/validation icon -->
    <circle cx="185" cy="227" r="13"/>
    <path d="M178,227 L184,233 L194,220" stroke-width="1.8"/>
    <!-- form/render icon -->
    <rect x="105" y="270" width="110" height="40" rx="4"/>
    <path d="M115,282 L195,282 M115,292 L175,292" stroke-width="1.4"/>
  </g>

  <!-- arrow -->
  <path d="M260,230 L340,230" stroke="#0f172a" stroke-width="3" marker-end="url(#arrow-srp)"/>

  <!-- after: 4 focused boxes -->
  <g>
    <rect x="380" y="80" width="180" height="60" rx="8" fill="#ffffff" stroke="#0891b2" stroke-width="2.5"/>
    <text x="470" y="105" text-anchor="middle" font-family="ui-monospace, SFMono-Regular, Menlo, Consolas, monospace" font-size="12" fill="#0e7490">useUserProfile</text>
    <text x="470" y="122" text-anchor="middle" font-family="system-ui, sans-serif" font-size="10" fill="#64748b">busca de dados</text>

    <rect x="380" y="156" width="180" height="60" rx="8" fill="#ffffff" stroke="#0891b2" stroke-width="2.5"/>
    <text x="470" y="181" text-anchor="middle" font-family="ui-monospace, SFMono-Regular, Menlo, Consolas, monospace" font-size="12" fill="#0e7490">formatJoinDate</text>
    <text x="470" y="198" text-anchor="middle" font-family="system-ui, sans-serif" font-size="10" fill="#64748b">formatação</text>

    <rect x="380" y="232" width="180" height="60" rx="8" fill="#ffffff" stroke="#0891b2" stroke-width="2.5"/>
    <text x="470" y="257" text-anchor="middle" font-family="ui-monospace, SFMono-Regular, Menlo, Consolas, monospace" font-size="12" fill="#0e7490">validateEmail</text>
    <text x="470" y="274" text-anchor="middle" font-family="system-ui, sans-serif" font-size="10" fill="#64748b">validação</text>

    <rect x="380" y="308" width="180" height="60" rx="8" fill="#ffffff" stroke="#0891b2" stroke-width="2.5"/>
    <text x="470" y="333" text-anchor="middle" font-family="ui-monospace, SFMono-Regular, Menlo, Consolas, monospace" font-size="12" fill="#0e7490">UserProfile</text>
    <text x="470" y="350" text-anchor="middle" font-family="system-ui, sans-serif" font-size="10" fill="#64748b">apresentação</text>
  </g>

  <!-- connecting lines from arrow point to each box -->
  <g stroke="#cbd5e1" stroke-width="1.5" fill="none">
    <path d="M340,230 L360,230 L360,110 L380,110"/>
    <path d="M340,230 L360,230 L360,186 L380,186"/>
    <path d="M340,230 L360,230 L360,262 L380,262"/>
    <path d="M340,230 L360,230 L360,338 L380,338"/>
  </g>

  <circle cx="60" cy="60" r="26" fill="#0f172a"/>
  <text x="60" y="69" text-anchor="middle" font-family="ui-monospace, SFMono-Regular, Menlo, Consolas, monospace" font-weight="700" font-size="24" fill="#ffffff">S</text>
</svg>
