<svg width="800" height="450" viewBox="0 0 800 450" xmlns="http://www.w3.org/2000/svg" role="img">
  <title>Monolithic UserProfile component splitting into four focused pieces: data hook, date formatting, email validation, and presentation</title>
  <defs>
    <pattern id="grid-srp" width="32" height="32" patternUnits="userSpaceOnUse">
      <circle cx="1" cy="1" r="1" fill="#cbd5e1" opacity="0.5"/>
    </pattern>
    <marker id="arrow-srp" markerWidth="10" markerHeight="10" refX="6" refY="3" orient="auto">
      <path d="M0,0 L6,3 L0,6 Z" fill="#0f172a"/>
    </marker>
  </defs>
  <rect width="800" height="450" fill="#f8fafc"/>
  <rect width="800" height="450" fill="url(#grid-srp)"/>

  <!-- before: one bloated component -->
  <rect x="155" y="120" width="180" height="220" rx="12" fill="#e2e8f0" stroke="#94a3b8" stroke-width="2.5"/>
  <text x="245" y="145" text-anchor="middle" font-family="ui-monospace, SFMono-Regular, Menlo, Consolas, monospace" font-size="13" fill="#475569">UserProfile</text>
  <g stroke="#64748b" stroke-width="2" fill="none" stroke-linecap="round">
    <!-- fetch icon -->
    <circle cx="210" cy="205" r="12"/>
    <path d="M210,188 L210,178 M210,222 L210,232 M193,205 L183,205 M227,205 L237,205" stroke-width="1.8"/>
    <!-- calendar icon -->
    <rect x="263" y="192" width="34" height="26" rx="3"/>
    <path d="M263,199 L297,199 M271,192 L271,186 M289,192 L289,186" stroke-width="1.6"/>
    <!-- check/validation icon -->
    <circle cx="210" cy="285" r="13"/>
    <path d="M203,285 L208,291 L218,274" stroke-width="1.8"/>
    <!-- form/render icon -->
    <rect x="255" y="269" width="50" height="32" rx="4"/>
    <path d="M263,281 L297,281 M263,291 L289,291" stroke-width="1.4"/>
  </g>

  <!-- arrow -->
  <path d="M345,230 L425,230" stroke="#0f172a" stroke-width="3" marker-end="url(#arrow-srp)"/>

  <!-- after: 4 focused boxes -->
  <g>
    <rect x="465" y="80" width="180" height="60" rx="8" fill="#ffffff" stroke="#0891b2" stroke-width="2.5"/>
    <text x="555" y="105" text-anchor="middle" font-family="ui-monospace, SFMono-Regular, Menlo, Consolas, monospace" font-size="12" fill="#0e7490">useUserProfile</text>
    <text x="555" y="122" text-anchor="middle" font-family="system-ui, sans-serif" font-size="10" fill="#64748b">data fetching</text>

    <rect x="465" y="156" width="180" height="60" rx="8" fill="#ffffff" stroke="#0891b2" stroke-width="2.5"/>
    <text x="555" y="181" text-anchor="middle" font-family="ui-monospace, SFMono-Regular, Menlo, Consolas, monospace" font-size="12" fill="#0e7490">formatJoinDate</text>
    <text x="555" y="198" text-anchor="middle" font-family="system-ui, sans-serif" font-size="10" fill="#64748b">formatting</text>

    <rect x="465" y="232" width="180" height="60" rx="8" fill="#ffffff" stroke="#0891b2" stroke-width="2.5"/>
    <text x="555" y="257" text-anchor="middle" font-family="ui-monospace, SFMono-Regular, Menlo, Consolas, monospace" font-size="12" fill="#0e7490">isValidEmail</text>
    <text x="555" y="274" text-anchor="middle" font-family="system-ui, sans-serif" font-size="10" fill="#64748b">validation</text>

    <rect x="465" y="308" width="180" height="60" rx="8" fill="#ffffff" stroke="#0891b2" stroke-width="2.5"/>
    <text x="555" y="333" text-anchor="middle" font-family="ui-monospace, SFMono-Regular, Menlo, Consolas, monospace" font-size="12" fill="#0e7490">UserProfile</text>
    <text x="555" y="350" text-anchor="middle" font-family="system-ui, sans-serif" font-size="10" fill="#64748b">presentation</text>
  </g>

  <!-- connecting lines from arrow point to each box -->
  <g stroke="#cbd5e1" stroke-width="1.5" fill="none">
    <path d="M425,230 L445,230 L445,110 L465,110"/>
    <path d="M425,230 L445,230 L445,186 L465,186"/>
    <path d="M425,230 L445,230 L445,262 L465,262"/>
    <path d="M425,230 L445,230 L445,338 L465,338"/>
  </g>

  <circle cx="60" cy="60" r="26" fill="#0f172a"/>
  <text x="60" y="69" text-anchor="middle" font-family="ui-monospace, SFMono-Regular, Menlo, Consolas, monospace" font-weight="700" font-size="24" fill="#ffffff">S</text>
</svg>
