<svg width="400" height="240" viewBox="0 0 400 240" fill="none" xmlns="http://www.w3.org/2000/svg">
  <rect width="400" height="240" fill="#f0f9ff"/>
  <rect x="50" y="50" width="300" height="140" rx="8" fill="#e0f2fe" stroke="#0ea5e9" stroke-width="2"/>

  <!-- Leaf icon -->
  <g transform="translate(180, 80)">
    <path d="M20 30C20 13.431 33.431 0 50 0C66.569 0 80 13.431 80 30C80 46.569 66.569 60 50 60C33.431 60 20 46.569 20 30Z" fill="#10b981"/>
    <path d="M35 45L50 30L65 45" stroke="#065f46" stroke-width="2" stroke-linecap="round" stroke-linejoin="round"/>
  </g>

  <!-- Droplet -->
  <g transform="translate(160, 100)">
    <path d="M20 15C20 6.716 26.716 0 35 0C43.284 0 50 6.716 50 15C50 23.284 43.284 30 35 30C26.716 30 20 23.284 20 15Z" fill="#3b82f6"/>
  </g>

  <text x="200" y="160" text-anchor="middle" fill="#1e40af" font-family="Arial, sans-serif" font-size="16" font-weight="bold">
    Gota de Cura
  </text>
  <text x="200" y="180" text-anchor="middle" fill="#64748b" font-family="Arial, sans-serif" font-size="12">
    Aromaterapia & E-commerce
  </text>
</svg>
